<svg width="95" height="100" viewBox="0 0 95 100" fill="none" xmlns="http://www.w3.org/2000/svg">
<path fill-rule="evenodd" clip-rule="evenodd" d="M94.4077 73C86.0825 89.041 69.3213 100 50 100C22.3857 100 0 77.6142 0 50C0 22.3858 22.3857 0 50 0C65.9048 0 80.0752 7.42606 89.2329 19H66.2632C61.4038 16.4455 55.8711 15 50 15C30.6699 15 15 30.67 15 50C15 69.33 30.6699 85 50 85C60.5259 85 69.9663 80.3536 76.3823 73H94.4077Z" fill="#CE94DC"/>
<rect x="63.2798" y="41.9" width="44" height="15" transform="rotate(45 63.2798 41.9)" fill="#CE94DC"/>
<circle cx="71.5" cy="74.5" r="12.5" fill="#CE94DC"/>
<path fill-rule="evenodd" clip-rule="evenodd" d="M52.3991 42.8131C49.1809 46.7411 49.405 52.5466 53.0715 56.2132L67.2136 42.0711C63.5471 38.4044 57.7409 38.1804 53.8132 41.399L59.1267 46.7122L57.7126 48.1264L52.3991 42.8131Z" fill="#CE94DC"/>
</svg>
